<svg id="error-context" width="162" height="162" viewBox="0 0 162 162" fill="none" xmlns="http://www.w3.org/2000/svg">
<path d="M51.9001 121.417L81.0001 92.3168L110.1 121.417L121.417 110.1L92.3168 81.0001L121.417 51.9001L110.1 40.5834L81.0001 69.6834L51.9001 40.5834L40.5834 51.9001L69.6834 81.0001L40.5834 110.1L51.9001 121.417ZM81.0001 161.833C69.8181 161.833 59.3098 159.712 49.4751 155.468C39.6404 151.224 31.0855 145.465 23.8105 138.19C16.5355 130.915 10.7761 122.36 6.53237 112.525C2.28862 102.69 0.166748 92.182 0.166748 81.0001C0.166748 69.8181 2.28862 59.3098 6.53237 49.4751C10.7761 39.6404 16.5355 31.0855 23.8105 23.8105C31.0855 16.5355 39.6404 10.7761 49.4751 6.53237C59.3098 2.28862 69.8181 0.166748 81.0001 0.166748C92.182 0.166748 102.69 2.28862 112.525 6.53237C122.36 10.7761 130.915 16.5355 138.19 23.8105C145.465 31.0855 151.224 39.6404 155.468 49.4751C159.712 59.3098 161.833 69.8181 161.833 81.0001C161.833 92.182 159.712 102.69 155.468 112.525C151.224 122.36 145.465 130.915 138.19 138.19C130.915 145.465 122.36 151.224 112.525 155.468C102.69 159.712 92.182 161.833 81.0001 161.833ZM81.0001 145.667C99.0529 145.667 114.344 139.402 126.873 126.873C139.402 114.344 145.667 99.0529 145.667 81.0001C145.667 62.9473 139.402 47.6563 126.873 35.1272C114.344 22.598 99.0529 16.3334 81.0001 16.3334C62.9473 16.3334 47.6563 22.598 35.1272 35.1272C22.598 47.6563 16.3334 62.9473 16.3334 81.0001C16.3334 99.0529 22.598 114.344 35.1272 126.873C47.6563 139.402 62.9473 145.667 81.0001 145.667Z" fill="#BCBCBC"/>
</svg>