<svg id="error-context" width="162" height="162" viewBox="0 0 162 162" fill="none" xmlns="http://www.w3.org/2000/svg">
<path d="M69.6832 118.183L126.671 61.1957L115.354 49.879L69.6832 95.5498L46.6457 72.5123L35.329 83.829L69.6832 118.183ZM80.9998 161.833C69.8179 161.833 59.3096 159.711 49.4748 155.468C39.6401 151.224 31.0853 145.464 23.8103 138.189C16.5353 130.914 10.7759 122.36 6.53213 112.525C2.28838 102.69 0.166504 92.1818 0.166504 80.9998C0.166504 69.8179 2.28838 59.3096 6.53213 49.4748C10.7759 39.6401 16.5353 31.0853 23.8103 23.8103C31.0853 16.5353 39.6401 10.7759 49.4748 6.53213C59.3096 2.28838 69.8179 0.166504 80.9998 0.166504C92.1818 0.166504 102.69 2.28838 112.525 6.53213C122.36 10.7759 130.914 16.5353 138.189 23.8103C145.464 31.0853 151.224 39.6401 155.468 49.4748C159.711 59.3096 161.833 69.8179 161.833 80.9998C161.833 92.1818 159.711 102.69 155.468 112.525C151.224 122.36 145.464 130.914 138.189 138.189C130.914 145.464 122.36 151.224 112.525 155.468C102.69 159.711 92.1818 161.833 80.9998 161.833ZM80.9998 145.667C99.0526 145.667 114.344 139.402 126.873 126.873C139.402 114.344 145.667 99.0526 145.667 80.9998C145.667 62.9471 139.402 47.6561 126.873 35.1269C114.344 22.5978 99.0526 16.3332 80.9998 16.3332C62.9471 16.3332 47.6561 22.5978 35.1269 35.1269C22.5978 47.6561 16.3332 62.9471 16.3332 80.9998C16.3332 99.0526 22.5978 114.344 35.1269 126.873C47.6561 139.402 62.9471 145.667 80.9998 145.667Z" fill="#BCBCBC"/>
</svg>